<?xml version="1.0" encoding="UTF-8" standalone="no"?>
<svg
   xmlns:dc="http://purl.org/dc/elements/1.1/"
   xmlns:cc="http://creativecommons.org/ns#"
   xmlns:rdf="http://www.w3.org/1999/02/22-rdf-syntax-ns#"
   xmlns:svg="http://www.w3.org/2000/svg"
   xmlns="http://www.w3.org/2000/svg"
   xmlns:sodipodi="http://sodipodi.sourceforge.net/DTD/sodipodi-0.dtd"
   xmlns:inkscape="http://www.inkscape.org/namespaces/inkscape"
   width="512px"
   height="512px"
   viewBox="0 0 512 512"
   version="1.1"
   id="SVGRoot"
   sodipodi:docname="favicon.svg"
   inkscape:version="1.0.1 (3bc2e813f5, 2020-09-07)">
  <defs
     id="defs50">
    <linearGradient
       id="a"
       x1="160.01"
       x2="100.01"
       y1="40.008"
       y2="180"
       gradientTransform="matrix(0.82571182,0,0,0.82571182,186.62887,126.62887)"
       gradientUnits="userSpaceOnUse">
      <stop
         stop-color="#37aee2"
         offset="0"
         id="stop4" />
      <stop
         stop-color="#1e96c8"
         offset="1"
         id="stop6" />
    </linearGradient>
  </defs>
  <sodipodi:namedview
     id="base"
     pagecolor="#ffffff"
     bordercolor="#666666"
     borderopacity="1.0"
     inkscape:pageopacity="0.0"
     inkscape:pageshadow="2"
     inkscape:zoom="0.7"
     inkscape:cx="284.68537"
     inkscape:cy="286.18671"
     inkscape:document-units="px"
     inkscape:current-layer="layer1"
     inkscape:document-rotation="0"
     showgrid="false"
     inkscape:window-width="1366"
     inkscape:window-height="728"
     inkscape:window-x="0"
     inkscape:window-y="0"
     inkscape:window-maximized="0" />
  <metadata
     id="metadata53">
    <rdf:RDF>
      <cc:Work
         rdf:about="">
        <dc:format>image/svg+xml</dc:format>
        <dc:type
           rdf:resource="http://purl.org/dc/dcmitype/StillImage" />
        <dc:title></dc:title>
      </cc:Work>
    </rdf:RDF>
  </metadata>
  <g
     inkscape:label="Слой 1"
     inkscape:groupmode="layer"
     id="layer1">
    <rect
       ry="120.66576"
       y="0"
       x="0"
       height="512"
       width="512"
       id="rect1440"
       style="font-variation-settings:'wght' 400;opacity:1;fill:#1c77ff;fill-opacity:1;stroke-width:4.04593;stroke-linejoin:round" />
    <path
       d="m 73.717401,245.151 c 38.457829,-21.18304 81.387039,-38.86356 121.497989,-56.63398 69.0064,-29.10656 138.28697,-57.70868 208.2666,-84.3369 13.61542,-4.53693 38.0795,-8.973227 40.47831,11.20342 -1.31411,28.561 -6.7175,56.95476 -10.42347,85.34852 -9.40692,62.4405 -20.28028,124.66716 -30.88304,186.90206 -3.65333,20.7307 -29.62196,31.4615 -46.23822,18.19508 -39.93274,-26.97256 -80.17255,-53.68413 -119.59538,-81.28286 -12.91386,-13.12166 -0.93866,-31.96593 10.59454,-41.33639 32.88983,-32.41281 67.76999,-59.95122 98.94089,-94.03908 8.4082,-20.30386 -16.43559,-3.1925 -24.63022,2.05105 -45.02647,31.02834 -88.95085,63.95107 -136.42274,91.22081 -24.2486,13.34811 -52.51077,1.94123 -76.74841,-5.50685 -21.731635,-8.9979 -53.57722,-18.06323 -34.839034,-31.78227 z"
       fill="#ffffff"
       id="path13"
       style="stroke-width:2.7415" />
  </g>
</svg>
